<svg width="20" height="20" viewBox="0 0 20 20" fill="none" xmlns="http://www.w3.org/2000/svg">
<path fill-rule="evenodd" clip-rule="evenodd" d="M8.75921 4.35C8.24171 4.49 7.75838 4.70917 7.42171 5.0125C6.50255 5.84167 6.12838 6.965 6.12838 8.99C6.12838 10.4333 5.30671 11.8 4.71505 12.685C4.58671 12.8783 4.54671 13.0625 4.55421 13.1733C4.55755 13.2233 4.56921 13.2467 4.57421 13.255C4.57755 13.2608 4.58755 13.2767 4.62755 13.2983C5.20421 13.6067 6.07421 13.8317 7.08005 13.9742C8.0482 14.1041 9.02404 14.1684 10.0009 14.1667C10.2219 14.1667 10.4339 14.2545 10.5901 14.4107C10.7464 14.567 10.8342 14.779 10.8342 15C10.8342 15.221 10.7464 15.433 10.5901 15.5893C10.4339 15.7455 10.2219 15.8333 10.0009 15.8333C9.06088 15.8333 7.93088 15.7792 6.84588 15.625C5.77755 15.4725 4.67671 15.2142 3.84171 14.7683C3.22755 14.44 2.93088 13.8683 2.89171 13.2858C2.85338 12.7367 3.03921 12.1942 3.32921 11.76C3.92671 10.865 4.46171 9.8775 4.46171 8.99C4.46171 6.7725 4.87171 5.0675 6.30588 3.775C6.91005 3.23 7.66921 2.91917 8.32171 2.74167C8.86886 2.58993 9.43315 2.50872 10.0009 2.5C10.2219 2.5 10.4339 2.5878 10.5901 2.74408C10.7464 2.90036 10.8342 3.11232 10.8342 3.33333C10.8342 3.55435 10.7464 3.76631 10.5901 3.92259C10.4339 4.07887 10.2219 4.16667 10.0009 4.16667C9.74588 4.16667 9.27088 4.21 8.75921 4.35Z" fill="#F1F1F1"/>
<path fill-rule="evenodd" clip-rule="evenodd" d="M11.243 4.35C11.7605 4.49 12.2438 4.70917 12.5805 5.0125C13.4996 5.84167 13.8738 6.965 13.8738 8.99C13.8738 10.4333 14.6955 11.8 15.2871 12.685C15.4155 12.8783 15.4555 13.0625 15.448 13.1733C15.4484 13.2018 15.4415 13.2299 15.428 13.255C15.4246 13.2608 15.4146 13.2767 15.3746 13.2983C14.798 13.6067 13.928 13.8317 12.9221 13.9742C11.954 14.1041 10.9781 14.1684 10.0013 14.1667C9.78029 14.1667 9.56833 14.2545 9.41205 14.4107C9.25577 14.567 9.16797 14.779 9.16797 15C9.16797 15.221 9.25577 15.433 9.41205 15.5893C9.56833 15.7455 9.78029 15.8333 10.0013 15.8333C10.9413 15.8333 12.0705 15.7792 13.1563 15.625C14.2246 15.4725 15.3255 15.2142 16.1605 14.7683C16.7746 14.44 17.0713 13.8683 17.1105 13.2858C17.1488 12.7367 16.963 12.1942 16.673 11.76C16.0755 10.865 15.5405 9.8775 15.5405 8.99C15.5405 6.7725 15.1305 5.0675 13.6963 3.775C13.0921 3.23 12.333 2.91917 11.6805 2.74167C11.1333 2.58993 10.569 2.50872 10.0013 2.5C9.78029 2.5 9.56833 2.5878 9.41205 2.74408C9.25577 2.90036 9.16797 3.11232 9.16797 3.33333C9.16797 3.55435 9.25577 3.76631 9.41205 3.92259C9.56833 4.07887 9.78029 4.16667 10.0013 4.16667C10.2563 4.16667 10.7313 4.21 11.243 4.35Z" fill="#F1F1F1"/>
<path d="M12.2057 3.06602C12.2057 3.64518 11.0424 3.10102 10.1224 3.10102C9.2024 3.10102 8.03906 3.64518 8.03906 3.06518C8.03906 2.48602 8.8724 1.66602 10.1224 1.66602C11.3724 1.66602 12.2057 2.48602 12.2057 3.06602Z" fill="#F1F1F1"/>
<path fill-rule="evenodd" clip-rule="evenodd" d="M8.33464 15C8.33464 15.442 8.51023 15.866 8.82279 16.1785C9.13535 16.4911 9.55927 16.6667 10.0013 16.6667C10.4433 16.6667 10.8673 16.4911 11.1798 16.1785C11.4924 15.866 11.668 15.442 11.668 15H13.3346C13.3346 15.8841 12.9834 16.7319 12.3583 17.357C11.7332 17.9821 10.8854 18.3333 10.0013 18.3333C9.11725 18.3333 8.2694 17.9821 7.64428 17.357C7.01916 16.7319 6.66797 15.8841 6.66797 15H8.33464Z" fill="#F1F1F1"/>
</svg>
