<svg width="16" height="18" viewBox="0 0 16 18" fill="none" xmlns="http://www.w3.org/2000/svg">
<path d="M2.97015 17.1505C2.49079 17.1505 2.08078 16.9798 1.74012 16.6384C1.39946 16.297 1.22878 15.8877 1.22806 15.4105V2.0581H0.689045C0.535965 2.0581 0.408039 2.00635 0.305268 1.90286C0.202496 1.79937 0.15075 1.67109 0.150032 1.51801C0.149313 1.36493 0.201058 1.237 0.305268 1.13423C0.409477 1.03146 0.537402 0.980074 0.689045 0.980074H4.46214C4.46214 0.757282 4.54478 0.563237 4.71008 0.39794C4.87538 0.232643 5.06942 0.149994 5.29222 0.149994H10.1002C10.323 0.149994 10.517 0.232643 10.6823 0.39794C10.8476 0.563237 10.9303 0.757282 10.9303 0.980074H14.7034C14.8565 0.980074 14.9844 1.03182 15.0872 1.13531C15.1899 1.2388 15.2417 1.36709 15.2424 1.52016C15.2431 1.67324 15.1914 1.80117 15.0872 1.90394C14.983 2.00671 14.855 2.0581 14.7034 2.0581H14.1644V15.4095C14.1644 15.8881 13.9937 16.2977 13.6523 16.6384C13.3109 16.9791 12.9013 17.1497 12.4234 17.1505H2.97015ZM13.0863 2.0581H2.30608V15.4095C2.30608 15.6028 2.36825 15.7616 2.49258 15.8859C2.61691 16.0103 2.7761 16.0724 2.97015 16.0724H12.4234C12.6167 16.0724 12.7755 16.0103 12.8998 15.8859C13.0242 15.7616 13.0863 15.6028 13.0863 15.4095V2.0581ZM5.87219 13.9164C6.02527 13.9164 6.15356 13.8646 6.25705 13.7612C6.36054 13.6577 6.41192 13.5297 6.41121 13.3774V4.75316C6.41121 4.60008 6.35946 4.47216 6.25597 4.36939C6.15248 4.26662 6.0242 4.21487 5.87112 4.21415C5.71804 4.21343 5.59011 4.26518 5.48734 4.36939C5.38457 4.4736 5.33318 4.60152 5.33318 4.75316V13.3774C5.33318 13.5305 5.38493 13.6584 5.48842 13.7612C5.59191 13.8646 5.71983 13.9164 5.87219 13.9164ZM9.52131 13.9164C9.67439 13.9164 9.80232 13.8646 9.90509 13.7612C10.0079 13.6577 10.0592 13.5297 10.0592 13.3774V4.75316C10.0592 4.60008 10.0075 4.47216 9.90401 4.36939C9.80052 4.2659 9.67259 4.21415 9.52023 4.21415C9.36715 4.21415 9.23887 4.2659 9.13538 4.36939C9.03189 4.47288 8.9805 4.6008 8.98122 4.75316V13.3774C8.98122 13.5305 9.03297 13.6584 9.13646 13.7612C9.23995 13.8639 9.36823 13.9157 9.52131 13.9164Z" fill="#A4A7AA"/>
<path d="M2.30608 2.0581H13.0863V15.4095C13.0863 15.6028 13.0242 15.7616 12.8998 15.8859C12.7755 16.0103 12.6167 16.0724 12.4234 16.0724H2.97015C2.7761 16.0724 2.61691 16.0103 2.49258 15.8859C2.36825 15.7616 2.30608 15.6028 2.30608 15.4095V2.0581ZM2.30608 2.0581V16.0724M2.97015 17.1505C2.49079 17.1505 2.08078 16.9798 1.74012 16.6384C1.39946 16.297 1.22878 15.8877 1.22806 15.4105V2.0581H0.689045C0.535965 2.0581 0.408039 2.00635 0.305268 1.90286C0.202496 1.79937 0.15075 1.67109 0.150032 1.51801C0.149313 1.36493 0.201058 1.237 0.305268 1.13423C0.409477 1.03146 0.537402 0.980074 0.689045 0.980074H4.46214C4.46214 0.757282 4.54478 0.563237 4.71008 0.39794C4.87538 0.232643 5.06942 0.149994 5.29222 0.149994H10.1002C10.323 0.149994 10.517 0.232643 10.6823 0.39794C10.8476 0.563237 10.9303 0.757282 10.9303 0.980074H14.7034C14.8565 0.980074 14.9844 1.03182 15.0872 1.13531C15.1899 1.2388 15.2417 1.36709 15.2424 1.52016C15.2431 1.67324 15.1914 1.80117 15.0872 1.90394C14.983 2.00671 14.855 2.0581 14.7034 2.0581H14.1644V15.4095C14.1644 15.8881 13.9937 16.2977 13.6523 16.6384C13.3109 16.9791 12.9013 17.1497 12.4234 17.1505H2.97015ZM5.87219 13.9164C6.02527 13.9164 6.15356 13.8646 6.25705 13.7612C6.36054 13.6577 6.41192 13.5297 6.41121 13.3774V4.75316C6.41121 4.60008 6.35946 4.47216 6.25597 4.36939C6.15248 4.26662 6.0242 4.21487 5.87112 4.21415C5.71804 4.21343 5.59011 4.26518 5.48734 4.36939C5.38457 4.4736 5.33318 4.60152 5.33318 4.75316V13.3774C5.33318 13.5305 5.38493 13.6584 5.48842 13.7612C5.59191 13.8646 5.71983 13.9164 5.87219 13.9164ZM9.52131 13.9164C9.67439 13.9164 9.80232 13.8646 9.90509 13.7612C10.0079 13.6577 10.0592 13.5297 10.0592 13.3774V4.75316C10.0592 4.60008 10.0075 4.47216 9.90401 4.36939C9.80052 4.2659 9.67259 4.21415 9.52023 4.21415C9.36715 4.21415 9.23887 4.2659 9.13538 4.36939C9.03189 4.47288 8.9805 4.6008 8.98122 4.75316V13.3774C8.98122 13.5305 9.03297 13.6584 9.13646 13.7612C9.23995 13.8639 9.36823 13.9157 9.52131 13.9164Z" stroke="#A4A7AA" stroke-width="0.3"/>
</svg>
