<svg width="291" height="86" viewBox="0 0 291 86" fill="none" xmlns="http://www.w3.org/2000/svg">
<g opacity="0.16" clip-path="url(#clip0_1_2090)">
<path d="M276.014 4.01346C275.382 3.83881 274.729 4.20847 274.554 4.84033C274.38 5.47164 274.75 6.1258 275.382 6.30045C276.013 6.47496 276.667 6.1038 276.841 5.47249C277.016 4.84063 276.645 4.18796 276.014 4.01346Z" fill="white"/>
<path d="M140.829 36.3017C140.987 35.7281 140.651 35.1346 140.078 34.9762C139.504 34.8177 138.91 35.1539 138.752 35.7275C138.593 36.3011 138.93 36.8943 139.504 37.0529C140.077 37.2113 140.67 36.8753 140.829 36.3017Z" fill="white"/>
<path d="M21.3944 6.05678C20.8581 5.90854 20.3031 6.22326 20.1549 6.75946C20.0066 7.29588 20.3213 7.85064 20.8576 7.99888C21.3939 8.14712 21.9487 7.8327 22.097 7.29628C22.2452 6.76008 21.9307 6.20503 21.3944 6.05678Z" fill="white"/>
<path d="M261.024 69.6952C260.918 70.0788 261.144 70.4768 261.527 70.5829C261.912 70.6891 262.309 70.4632 262.415 70.0796C262.521 69.6953 262.296 69.298 261.912 69.1918C261.528 69.0857 261.13 69.3109 261.024 69.6952Z" fill="white"/>
<path d="M238.752 12.1389C239.459 12.3342 240.19 11.9195 240.385 11.213C240.581 10.5064 240.166 9.7749 239.459 9.5796C238.753 9.38431 238.021 9.79902 237.826 10.5055C237.631 11.2121 238.046 11.9436 238.752 12.1389Z" fill="white"/>
<path d="M276.425 42.093C275.789 41.9171 275.131 42.2901 274.955 42.9264C274.779 43.5626 275.152 44.2206 275.788 44.3965C276.424 44.5723 277.082 44.1994 277.258 43.5631C277.434 42.9269 277.061 42.2688 276.425 42.093Z" fill="white"/>
<path d="M170.068 12.7565C170.192 12.3068 169.928 11.8417 169.479 11.7175C169.029 11.5932 168.564 11.8567 168.44 12.3064C168.315 12.7565 168.579 13.2218 169.029 13.3461C169.478 13.4704 169.944 13.2066 170.068 12.7565Z" fill="white"/>
<path d="M121.865 19.7725C121.73 20.2604 122.016 20.7655 122.505 20.9006C122.993 21.0354 123.497 20.7488 123.632 20.261C123.767 19.7729 123.481 19.2678 122.993 19.1329C122.505 18.9979 122 19.2844 121.865 19.7725Z" fill="white"/>
<path d="M199.25 23.8321C198.824 23.7142 198.382 23.9645 198.264 24.391C198.146 24.8182 198.396 25.2597 198.823 25.3776C199.249 25.4955 199.69 25.245 199.808 24.8179C199.926 24.3913 199.677 23.95 199.25 23.8321Z" fill="white"/>
<path d="M229.033 50.0822C228.84 50.7811 229.249 51.5041 229.948 51.6973C230.647 51.8904 231.37 51.4803 231.563 50.7815C231.756 50.0833 231.346 49.3603 230.648 49.1671C229.949 48.9739 229.226 49.3841 229.033 50.0822Z" fill="white"/>
<path d="M193.185 44.5325C192.654 44.3856 192.104 44.6976 191.957 45.229C191.81 45.7604 192.122 46.3104 192.653 46.4573C193.185 46.6043 193.734 46.2923 193.881 45.7609C194.028 45.2295 193.717 44.6795 193.185 44.5325Z" fill="white"/>
<path d="M64.4546 14.9598C64.2487 15.7047 64.6857 16.4755 65.4306 16.6814C66.1755 16.8873 66.9469 16.4505 67.1528 15.7056C67.3587 14.9606 66.9212 14.1896 66.1763 13.9837C65.4313 13.7778 64.6605 14.2148 64.4546 14.9598Z" fill="white"/>
</g>
<defs>
<clipPath id="clip0_1_2090">
<rect width="284.776" height="284.776" fill="white" transform="translate(75.8708 -265) rotate(15.4515)"/>
</clipPath>
</defs>
</svg>
