<svg width="14" height="14" viewBox="0 0 14 14" fill="none" xmlns="http://www.w3.org/2000/svg">
<path d="M10.0417 5.70573L7.02083 8.72656C6.95139 8.79601 6.88194 8.84462 6.8125 8.8724C6.74306 8.90017 6.66667 8.91406 6.58333 8.91406C6.5 8.91406 6.42361 8.90017 6.35417 8.8724C6.28472 8.84462 6.21528 8.79601 6.14583 8.72656L3.125 5.70573C3.08333 5.66406 3.05222 5.61879 3.03167 5.5699C3.01111 5.52101 3.00056 5.46906 3 5.41406C3 5.30295 3.03833 5.20573 3.115 5.1224C3.19167 5.03906 3.29222 4.9974 3.41667 4.9974H9.75C9.875 4.9974 9.97583 5.03906 10.0525 5.1224C10.1292 5.20573 10.1672 5.30295 10.1667 5.41406C10.1667 5.44184 10.125 5.53906 10.0417 5.70573Z" fill="#A4A7AA"/>
</svg>
