<svg width="27" height="28" viewBox="0 0 27 28" fill="none" xmlns="http://www.w3.org/2000/svg">
<g filter="url(#filter0_d_1_341)">
<path d="M13.25 4C14.6424 4 15.9777 4.55312 16.9623 5.53769C17.9469 6.52226 18.5 7.85761 18.5 9.25C18.5 11.0432 17.5223 12.5108 16.4922 13.5638C15.9775 14.0841 15.4159 14.5559 14.8145 14.9731L14.566 15.1422L14.4493 15.2198L14.2294 15.3598L14.0334 15.4794L13.7908 15.6206C13.626 15.7146 13.4397 15.764 13.25 15.764C13.0603 15.764 12.874 15.7146 12.7092 15.6206L12.4666 15.4794L12.1632 15.2927L12.0512 15.2198L11.8121 15.0606C11.1633 14.6216 10.559 14.1203 10.0078 13.5638C8.97767 12.5103 8 11.0432 8 9.25C8 7.85761 8.55312 6.52226 9.53769 5.53769C10.5223 4.55312 11.8576 4 13.25 4ZM13.25 7.5C13.0202 7.5 12.7926 7.54526 12.5803 7.63321C12.368 7.72116 12.1751 7.85006 12.0126 8.01256C11.8501 8.17507 11.7212 8.36798 11.6332 8.5803C11.5453 8.79262 11.5 9.02019 11.5 9.25C11.5 9.47981 11.5453 9.70738 11.6332 9.9197C11.7212 10.132 11.8501 10.3249 12.0126 10.4874C12.1751 10.6499 12.368 10.7788 12.5803 10.8668C12.7926 10.9547 13.0202 11 13.25 11C13.7141 11 14.1592 10.8156 14.4874 10.4874C14.8156 10.1592 15 9.71413 15 9.25C15 8.78587 14.8156 8.34075 14.4874 8.01256C14.1592 7.68437 13.7141 7.5 13.25 7.5Z" fill="#0085FE"/>
</g>
<defs>
<filter id="filter0_d_1_341" x="0" y="0" width="26.5" height="27.764" filterUnits="userSpaceOnUse" color-interpolation-filters="sRGB">
<feFlood flood-opacity="0" result="BackgroundImageFix"/>
<feColorMatrix in="SourceAlpha" type="matrix" values="0 0 0 0 0 0 0 0 0 0 0 0 0 0 0 0 0 0 127 0" result="hardAlpha"/>
<feOffset dy="4"/>
<feGaussianBlur stdDeviation="4"/>
<feComposite in2="hardAlpha" operator="out"/>
<feColorMatrix type="matrix" values="0 0 0 0 0 0 0 0 0 0.521569 0 0 0 0 0.996078 0 0 0 0.2 0"/>
<feBlend mode="normal" in2="BackgroundImageFix" result="effect1_dropShadow_1_341"/>
<feBlend mode="normal" in="SourceGraphic" in2="effect1_dropShadow_1_341" result="shape"/>
</filter>
</defs>
</svg>
