<svg width="24" height="24" viewBox="0 0 24 24" fill="none" xmlns="http://www.w3.org/2000/svg">
<rect width="24" height="24" rx="8" fill="url(#paint0_linear_1_585)"/>
<path fill-rule="evenodd" clip-rule="evenodd" d="M12.0123 6.37506C10.6007 6.37506 9.31479 6.84131 8.55385 7.22225C8.4851 7.25662 8.42093 7.29017 8.36135 7.32287C8.24323 7.38725 8.1426 7.44725 8.0626 7.50006L8.92823 8.77444L9.33573 8.93662C10.9282 9.74006 13.0639 9.74006 14.6567 8.93662L15.1192 8.69662L15.9376 7.50006C15.7679 7.38978 15.5916 7.28991 15.4098 7.201C14.6526 6.82412 13.3973 6.37506 12.0126 6.37506M9.99948 7.81756C9.69302 7.75989 9.39029 7.68392 9.09291 7.59006C9.80573 7.2735 10.8679 6.93756 12.0126 6.93756C12.8054 6.93756 13.5551 7.09881 14.1751 7.30319C13.4485 7.40537 12.6732 7.57881 11.9345 7.79225C11.3532 7.96037 10.6739 7.94225 9.99948 7.81756ZM14.987 9.40006L14.9101 9.43881C13.1582 10.3226 10.8345 10.3226 9.0826 9.43881L9.00979 9.40194C6.3776 12.2897 4.36823 17.6241 12.0123 17.6241C19.6564 17.6241 17.5982 12.1907 14.987 9.40006ZM11.6876 12.0001C11.5218 12.0001 11.3629 12.0659 11.2457 12.1831C11.1284 12.3003 11.0626 12.4593 11.0626 12.6251C11.0626 12.7908 11.1284 12.9498 11.2457 13.067C11.3629 13.1842 11.5218 13.2501 11.6876 13.2501V12.0001ZM12.3126 11.3751V11.0626H11.6876V11.3751C11.3561 11.3751 11.0381 11.5068 10.8037 11.7412C10.5693 11.9756 10.4376 12.2935 10.4376 12.6251C10.4376 12.9566 10.5693 13.2745 10.8037 13.5089C11.0381 13.7434 11.3561 13.8751 11.6876 13.8751V15.1251C11.4157 15.1251 11.1842 14.9516 11.0979 14.7085C11.0851 14.6687 11.0645 14.6319 11.0372 14.6003C11.0099 14.5686 10.9766 14.5427 10.9392 14.5242C10.9017 14.5056 10.8609 14.4948 10.8192 14.4923C10.7775 14.4898 10.7357 14.4956 10.6963 14.5096C10.6569 14.5235 10.6207 14.5452 10.5898 14.5733C10.559 14.6015 10.5341 14.6355 10.5166 14.6735C10.4991 14.7114 10.4894 14.7525 10.4881 14.7943C10.4868 14.836 10.4938 14.8776 10.5089 14.9166C10.595 15.1604 10.7546 15.3714 10.9657 15.5207C11.1769 15.67 11.4291 15.7501 11.6876 15.7501V16.0626H12.3126V15.7501C12.6441 15.7501 12.9621 15.6184 13.1965 15.3839C13.4309 15.1495 13.5626 14.8316 13.5626 14.5001C13.5626 14.1685 13.4309 13.8506 13.1965 13.6162C12.9621 13.3818 12.6441 13.2501 12.3126 13.2501V12.0001C12.5845 12.0001 12.816 12.1735 12.9023 12.4166C12.9151 12.4564 12.9357 12.4932 12.963 12.5249C12.9903 12.5565 13.0236 12.5824 13.0611 12.6009C13.0985 12.6195 13.1393 12.6303 13.181 12.6329C13.2227 12.6354 13.2645 12.6295 13.3039 12.6156C13.3433 12.6016 13.3795 12.58 13.4104 12.5518C13.4412 12.5237 13.4661 12.4896 13.4836 12.4516C13.5011 12.4137 13.5108 12.3726 13.5121 12.3309C13.5134 12.2891 13.5064 12.2475 13.4914 12.2085C13.4052 11.9647 13.2456 11.7537 13.0345 11.6044C12.8233 11.4551 12.5711 11.375 12.3126 11.3751ZM12.3126 13.8751V15.1251C12.4784 15.1251 12.6373 15.0592 12.7545 14.942C12.8718 14.8248 12.9376 14.6658 12.9376 14.5001C12.9376 14.3343 12.8718 14.1753 12.7545 14.0581C12.6373 13.9409 12.4784 13.8751 12.3126 13.8751Z" fill="white"/>
<defs>
<linearGradient id="paint0_linear_1_585" x1="9.49949e-08" y1="-0.111328" x2="24" y2="23.8887" gradientUnits="userSpaceOnUse">
<stop stop-color="#169940"/>
<stop offset="1" stop-color="#0EBB46"/>
</linearGradient>
</defs>
</svg>
