<svg width="20" height="20" viewBox="0 0 20 20" fill="none" xmlns="http://www.w3.org/2000/svg">
<path d="M9.99939 12.235C11.2337 12.235 12.2343 11.2344 12.2343 10.0001C12.2343 8.76586 11.2337 7.76527 9.99939 7.76527C8.76511 7.76527 7.76453 8.76586 7.76453 10.0001C7.76453 11.2344 8.76511 12.235 9.99939 12.235Z" stroke="#F1F1F1" stroke-width="1.34092"/>
<path d="M11.3155 2.66499C11.0421 2.55176 10.6949 2.55176 10.0006 2.55176C9.30632 2.55176 8.95917 2.55176 8.68577 2.66499C8.50488 2.73987 8.34053 2.84966 8.20209 2.9881C8.06366 3.12653 7.95387 3.29089 7.87899 3.47178C7.81045 3.6379 7.78289 3.83233 7.77246 4.11467C7.76761 4.31874 7.71108 4.51824 7.60815 4.69451C7.50523 4.87078 7.35928 5.01807 7.18395 5.1226C7.00576 5.22225 6.8052 5.27507 6.60104 5.27611C6.39688 5.27715 6.1958 5.22638 6.0166 5.12856C5.7663 4.99595 5.58527 4.92295 5.40574 4.89911C5.01413 4.84761 4.6181 4.95372 4.3047 5.19411C4.07078 5.37513 3.89646 5.67535 3.54931 6.27653C3.20216 6.87771 3.02785 7.17792 2.98985 7.47218C2.96425 7.66621 2.97713 7.86338 3.02775 8.05242C3.07836 8.24147 3.16573 8.41869 3.28485 8.57397C3.39511 8.717 3.54931 8.83694 3.78844 8.98742C4.14081 9.20867 4.36727 9.58562 4.36727 10.0013C4.36727 10.417 4.14081 10.7939 3.78844 11.0144C3.54931 11.1657 3.39436 11.2856 3.28485 11.4286C3.16573 11.5839 3.07836 11.7611 3.02775 11.9502C2.97713 12.1392 2.96425 12.3364 2.98985 12.5304C3.02859 12.8239 3.20216 13.1249 3.54857 13.7261C3.89646 14.3273 4.07004 14.6275 4.3047 14.8085C4.45997 14.9276 4.6372 15.015 4.82624 15.0656C5.01529 15.1162 5.21246 15.1291 5.40649 15.1035C5.58527 15.0797 5.7663 15.0067 6.0166 14.874C6.1958 14.7762 6.39688 14.7255 6.60104 14.7265C6.8052 14.7275 7.00576 14.7804 7.18395 14.88C7.54376 15.0886 7.75756 15.4722 7.77246 15.8879C7.78289 16.171 7.80971 16.3647 7.87899 16.5308C7.95387 16.7117 8.06366 16.8761 8.20209 17.0145C8.34053 17.1529 8.50488 17.2627 8.68577 17.3376C8.95917 17.4508 9.30632 17.4508 10.0006 17.4508C10.6949 17.4508 11.0421 17.4508 11.3155 17.3376C11.4964 17.2627 11.6607 17.1529 11.7991 17.0145C11.9376 16.8761 12.0474 16.7117 12.1222 16.5308C12.1908 16.3647 12.2183 16.171 12.2288 15.8879C12.2437 15.4722 12.4575 15.0879 12.8173 14.88C12.9955 14.7804 13.196 14.7275 13.4002 14.7265C13.6044 14.7255 13.8054 14.7762 13.9846 14.874C14.2349 15.0067 14.416 15.0797 14.5948 15.1035C14.7888 15.1291 14.9859 15.1162 15.175 15.0656C15.364 15.015 15.5413 14.9276 15.6965 14.8085C15.9312 14.6282 16.1048 14.3273 16.4519 13.7261C16.7991 13.1249 16.9734 12.8247 17.0114 12.5304C17.037 12.3364 17.0241 12.1392 16.9735 11.9502C16.9229 11.7611 16.8355 11.5839 16.7164 11.4286C16.6061 11.2856 16.4519 11.1657 16.2128 11.0152C16.0384 10.909 15.8939 10.7602 15.7926 10.5829C15.6914 10.4056 15.6368 10.2055 15.634 10.0013C15.634 9.58562 15.8604 9.20867 16.2128 8.98816C16.4519 8.83694 16.6069 8.717 16.7164 8.57397C16.8355 8.41869 16.9229 8.24147 16.9735 8.05242C17.0241 7.86338 17.037 7.66621 17.0114 7.47218C16.9726 7.17867 16.7991 6.87771 16.4527 6.27653C16.1048 5.67535 15.9312 5.37513 15.6965 5.19411C15.5413 5.07499 15.364 4.98762 15.175 4.937C14.9859 4.88639 14.7888 4.87351 14.5948 4.89911C14.416 4.92295 14.2349 4.99595 13.9839 5.12856C13.8048 5.22625 13.6038 5.27695 13.3998 5.2759C13.1958 5.27486 12.9954 5.22212 12.8173 5.1226C12.642 5.01807 12.496 4.87078 12.3931 4.69451C12.2902 4.51824 12.2336 4.31874 12.2288 4.11467C12.2183 3.83159 12.1915 3.6379 12.1222 3.47178C12.0474 3.29089 11.9376 3.12653 11.7991 2.9881C11.6607 2.84966 11.4964 2.73987 11.3155 2.66499Z" stroke="#F1F1F1" stroke-width="1.34092"/>
</svg>
