<svg width="24" height="24" viewBox="0 0 24 24" fill="none" xmlns="http://www.w3.org/2000/svg">
<rect width="24" height="24" rx="8" fill="url(#paint0_linear_1_576)"/>
<path fill-rule="evenodd" clip-rule="evenodd" d="M13.2751 6.4595C12.8809 6.4555 12.4559 6.4534 12.0001 6.4532C9.45859 6.4532 7.90614 6.5237 6.99986 6.5912C6.11999 6.6572 5.43241 7.30068 5.34931 8.19525C5.30243 8.72106 5.26972 9.24803 5.25122 9.7756C5.23172 10.2814 5.57371 10.6504 5.895 10.8364C6.30089 11.0716 6.57028 11.5068 6.57028 12.003C6.57028 12.4992 6.30029 12.9345 5.8947 13.1697C5.57371 13.3557 5.23142 13.7247 5.25092 14.2305C5.26942 14.758 5.30213 15.285 5.34901 15.8108C5.43211 16.7054 6.11969 17.3489 6.99956 17.4146C7.90584 17.4824 9.45829 17.5529 11.9998 17.5529C12.4556 17.5529 12.8806 17.5508 13.2748 17.5466V16.3529C13.2748 16.2137 13.3301 16.0801 13.4285 15.9817C13.527 15.8832 13.6605 15.8279 13.7998 15.8279C13.939 15.8279 14.0725 15.8832 14.171 15.9817C14.2694 16.0801 14.3247 16.2137 14.3247 16.3529V17.5301C15.5514 17.5037 16.4118 17.4587 17.0001 17.4146C17.8799 17.3486 18.5675 16.7051 18.6506 15.8108C18.6976 15.285 18.7303 14.758 18.7487 14.2305C18.7682 13.7247 18.4259 13.3557 18.1049 13.1697C17.8999 13.0517 17.7295 12.8817 17.611 12.6769C17.4925 12.4721 17.4301 12.2396 17.4299 12.003C17.4299 11.5068 17.6999 11.0716 18.1055 10.8364C18.4265 10.6504 18.7691 10.2814 18.7493 9.7753C18.7308 9.24783 18.6981 8.72096 18.6512 8.19525C18.5681 7.30068 17.8805 6.6572 17.0007 6.5915C16.4127 6.5474 15.5517 6.5024 14.3253 6.476V7.65316C14.3253 7.7924 14.27 7.92593 14.1716 8.02438C14.0731 8.12284 13.9396 8.17815 13.8004 8.17815C13.6611 8.17815 13.5276 8.12284 13.4291 8.02438C13.3307 7.92593 13.2754 7.7924 13.2754 7.65316L13.2751 6.4595ZM13.8001 9.22812C14.0901 9.22812 14.325 9.46331 14.325 9.7531V10.9531C14.325 11.0923 14.2697 11.2258 14.1713 11.3243C14.0728 11.4227 13.9393 11.478 13.8001 11.478C13.6608 11.478 13.5273 11.4227 13.4288 11.3243C13.3304 11.2258 13.2751 11.0923 13.2751 10.9531V9.7531C13.2751 9.46331 13.5103 9.22812 13.8001 9.22812ZM14.325 13.053C14.325 12.9138 14.2697 12.7802 14.1713 12.6818C14.0728 12.5833 13.9393 12.528 13.8001 12.528C13.6608 12.528 13.5273 12.5833 13.4288 12.6818C13.3304 12.7802 13.2751 12.9138 13.2751 13.053V14.253C13.2751 14.3922 13.3304 14.5257 13.4288 14.6242C13.5273 14.7226 13.6608 14.7779 13.8001 14.7779C13.9393 14.7779 14.0728 14.7226 14.1713 14.6242C14.2697 14.5257 14.325 14.3922 14.325 14.253V13.053Z" fill="white"/>
<defs>
<linearGradient id="paint0_linear_1_576" x1="-3.35276e-08" y1="0.319336" x2="24" y2="24.3193" gradientUnits="userSpaceOnUse">
<stop stop-color="#366EFF"/>
<stop offset="1" stop-color="#547FED"/>
</linearGradient>
</defs>
</svg>
