<svg width="24" height="24" viewBox="0 0 24 24" fill="none" xmlns="http://www.w3.org/2000/svg">
<rect width="24" height="24" rx="8" fill="#E3A600"/>
<g clip-path="url(#clip0_1_2084)">
<path d="M9 6.375C9 6.27554 8.96049 6.18016 8.89016 6.10983C8.81984 6.03951 8.72446 6 8.625 6C8.52554 6 8.43016 6.03951 8.35984 6.10983C8.28951 6.18016 8.25 6.27554 8.25 6.375V6.75H7.5C7.10218 6.75 6.72064 6.90804 6.43934 7.18934C6.15804 7.47064 6 7.85218 6 8.25V9H18V8.25C18 7.85218 17.842 7.47064 17.5607 7.18934C17.2794 6.90804 16.8978 6.75 16.5 6.75H15.75V6.375C15.75 6.27554 15.7105 6.18016 15.6402 6.10983C15.5698 6.03951 15.4745 6 15.375 6C15.2755 6 15.1802 6.03951 15.1098 6.10983C15.0395 6.18016 15 6.27554 15 6.375V6.75H9V6.375ZM18 16.5V9.75H6V16.5C6 16.8978 6.15804 17.2794 6.43934 17.5607C6.72064 17.842 7.10218 18 7.5 18H16.5C16.8978 18 17.2794 17.842 17.5607 17.5607C17.842 17.2794 18 16.8978 18 16.5ZM15.375 11.25H16.125C16.2245 11.25 16.3198 11.2895 16.3902 11.3598C16.4605 11.4302 16.5 11.5255 16.5 11.625V12.375C16.5 12.4745 16.4605 12.5698 16.3902 12.6402C16.3198 12.7105 16.2245 12.75 16.125 12.75H15.375C15.2755 12.75 15.1802 12.7105 15.1098 12.6402C15.0395 12.5698 15 12.4745 15 12.375V11.625C15 11.5255 15.0395 11.4302 15.1098 11.3598C15.1802 11.2895 15.2755 11.25 15.375 11.25Z" fill="white"/>
</g>
<defs>
<clipPath id="clip0_1_2084">
<rect width="12" height="12" fill="white" transform="translate(6 6)"/>
</clipPath>
</defs>
</svg>
