<svg width="24" height="24" viewBox="0 0 24 24" fill="none" xmlns="http://www.w3.org/2000/svg">
<rect width="24" height="24" rx="8" fill="url(#paint0_linear_1_594)"/>
<g clip-path="url(#clip0_1_594)">
<path d="M12.25 8.67773C12.25 9.29934 12.0031 9.89548 11.5635 10.335C11.124 10.7746 10.5279 11.0215 9.90625 11.0215C9.28465 11.0215 8.68851 10.7746 8.24897 10.335C7.80943 9.89548 7.5625 9.29934 7.5625 8.67773C7.5625 8.05613 7.80943 7.45999 8.24897 7.02045C8.68851 6.58091 9.28465 6.33398 9.90625 6.33398C10.5279 6.33398 11.124 6.58091 11.5635 7.02045C12.0031 7.45999 12.25 8.05613 12.25 8.67773ZM15.5312 10.084C15.0303 10.0836 14.5319 10.1562 14.0519 10.2996C13.836 10.0226 13.7023 9.6906 13.6659 9.34133C13.6295 8.99206 13.6919 8.63959 13.846 8.32406C14.0002 8.00853 14.2398 7.74263 14.5377 7.55663C14.8355 7.37063 15.1796 7.27202 15.5308 7.27202C15.8819 7.27202 16.226 7.37063 16.5239 7.55663C16.8218 7.74263 17.0614 8.00853 17.2155 8.32406C17.3697 8.63959 17.4321 8.99206 17.3957 9.34133C17.3593 9.6906 17.2256 10.0226 17.0097 10.2996C16.53 10.1563 16.0319 10.0837 15.5312 10.084ZM7.5625 11.959H11.5534C10.7902 12.8819 10.3733 14.0426 10.375 15.2402C10.375 15.5534 10.4022 15.8587 10.4566 16.1562C10.2822 16.1705 10.0988 16.1777 9.90625 16.1777C6.15625 16.1777 6.15625 13.4355 6.15625 13.4355V13.3652C6.15625 12.9923 6.30441 12.6346 6.56813 12.3709C6.83185 12.1071 7.18954 11.959 7.5625 11.959ZM19.75 15.2402C19.75 16.3591 19.3055 17.4322 18.5144 18.2233C17.7232 19.0145 16.6501 19.459 15.5312 19.459C14.4124 19.459 13.3393 19.0145 12.5481 18.2233C11.757 17.4322 11.3125 16.3591 11.3125 15.2402C11.3125 14.1214 11.757 13.0483 12.5481 12.2571C13.3393 11.466 14.4124 11.0215 15.5312 11.0215C16.6501 11.0215 17.7232 11.466 18.5144 12.2571C19.3055 13.0483 19.75 14.1214 19.75 15.2402ZM17.7381 13.5021C17.6946 13.4585 17.6429 13.4238 17.5859 13.4002C17.529 13.3766 17.4679 13.3644 17.4062 13.3644C17.3446 13.3644 17.2835 13.3766 17.2266 13.4002C17.1696 13.4238 17.1179 13.4585 17.0744 13.5021L14.5938 15.9837L13.9881 15.3771C13.9001 15.2891 13.7807 15.2396 13.6562 15.2396C13.5318 15.2396 13.4124 15.2891 13.3244 15.3771C13.2364 15.4651 13.1869 15.5845 13.1869 15.709C13.1869 15.8335 13.2364 15.9528 13.3244 16.0409L14.2619 16.9784C14.3054 17.022 14.3571 17.0566 14.4141 17.0803C14.471 17.1039 14.5321 17.1161 14.5938 17.1161C14.6554 17.1161 14.7165 17.1039 14.7734 17.0803C14.8304 17.0566 14.8821 17.022 14.9256 16.9784L17.7381 14.1659C17.7818 14.1223 17.8164 14.0706 17.84 14.0136C17.8637 13.9567 17.8758 13.8956 17.8758 13.834C17.8758 13.7723 17.8637 13.7113 17.84 13.6543C17.8164 13.5974 17.7818 13.5457 17.7381 13.5021Z" fill="white"/>
</g>
<defs>
<linearGradient id="paint0_linear_1_594" x1="9.49949e-08" y1="-0.111328" x2="24" y2="23.8887" gradientUnits="userSpaceOnUse">
<stop stop-color="#00A6C2"/>
<stop offset="1" stop-color="#00C8E9"/>
</linearGradient>
<clipPath id="clip0_1_594">
<rect width="15" height="15" fill="white" transform="translate(4.75 4.45898)"/>
</clipPath>
</defs>
</svg>
