<svg width="24" height="24" viewBox="0 0 24 24" fill="none" xmlns="http://www.w3.org/2000/svg">
<rect width="24" height="24" rx="8" fill="#0570D4"/>
<path d="M15.3334 6.22659C16.3389 6.80716 17.1753 7.64027 17.7599 8.64346C18.3445 9.64664 18.6569 10.7851 18.6663 11.9461C18.6757 13.1072 18.3817 14.2506 17.8134 15.2631C17.2451 16.2755 16.4222 17.1221 15.4262 17.7188C14.4302 18.3155 13.2956 18.6418 12.1348 18.6653C10.9739 18.6888 9.82707 18.4087 8.80774 17.8528C7.78841 17.2968 6.93195 16.4843 6.32315 15.4956C5.71435 14.5069 5.37431 13.3764 5.33671 12.2159L5.33337 11.9999L5.33671 11.7839C5.37404 10.6326 5.70907 9.51056 6.30913 8.52725C6.90919 7.54394 7.75381 6.73289 8.76064 6.17318C9.76746 5.61347 10.9021 5.32419 12.054 5.33355C13.206 5.34291 14.3358 5.65059 15.3334 6.22659ZM12 7.99992C11.8368 7.99994 11.6791 8.05989 11.5571 8.1684C11.4351 8.27691 11.3571 8.42642 11.338 8.58859L11.3334 8.66659V11.9999L11.3394 12.0873C11.3546 12.2029 11.3999 12.3126 11.4707 12.4053L11.5287 12.4719L13.5287 14.4719L13.5914 14.5266C13.7083 14.6173 13.8521 14.6665 14 14.6665C14.148 14.6665 14.2918 14.6173 14.4087 14.5266L14.4714 14.4713L14.5267 14.4086C14.6174 14.2917 14.6667 14.1479 14.6667 13.9999C14.6667 13.8519 14.6174 13.7082 14.5267 13.5913L14.4714 13.5286L12.6667 11.7233V8.66659L12.662 8.58859C12.6429 8.42642 12.565 8.27691 12.443 8.1684C12.3209 8.05989 12.1633 7.99994 12 7.99992Z" fill="white"/>
</svg>
